<mxfile host="65bd71144e">
    <diagram id="TxKtHsXFtKPUUg_1Wgo5" name="Page-1">
        <mxGraphModel dx="873" dy="636" grid="1" gridSize="10" guides="1" tooltips="1" connect="1" arrows="1" fold="1" page="1" pageScale="1" pageWidth="850" pageHeight="1100" math="0" shadow="0">
            <root>
                <mxCell id="0"/>
                <mxCell id="1" parent="0"/>
                <mxCell id="4" value="" style="edgeStyle=none;html=1;" parent="1" source="2" target="3" edge="1">
                    <mxGeometry relative="1" as="geometry"/>
                </mxCell>
                <mxCell id="2" value="&lt;p style=&quot;line-height: 1&quot;&gt;1&lt;/p&gt;" style="ellipse;whiteSpace=wrap;html=1;aspect=fixed;" parent="1" vertex="1">
                    <mxGeometry x="40" y="40" width="80" height="80" as="geometry"/>
                </mxCell>
                <mxCell id="26" value="" style="edgeStyle=none;html=1;" parent="1" source="3" target="25" edge="1">
                    <mxGeometry relative="1" as="geometry"/>
                </mxCell>
                <mxCell id="3" value="&lt;p style=&quot;line-height: 1&quot;&gt;2&lt;/p&gt;" style="ellipse;whiteSpace=wrap;html=1;aspect=fixed;" parent="1" vertex="1">
                    <mxGeometry x="40" y="160" width="80" height="80" as="geometry"/>
                </mxCell>
                <mxCell id="8" value="" style="edgeStyle=none;html=1;" parent="1" source="5" target="6" edge="1">
                    <mxGeometry relative="1" as="geometry"/>
                </mxCell>
                <mxCell id="5" value="&lt;p style=&quot;line-height: 1&quot;&gt;5&lt;/p&gt;" style="ellipse;whiteSpace=wrap;html=1;aspect=fixed;" parent="1" vertex="1">
                    <mxGeometry x="40" y="520" width="80" height="80" as="geometry"/>
                </mxCell>
                <mxCell id="10" value="" style="edgeStyle=none;html=1;" parent="1" source="6" target="9" edge="1">
                    <mxGeometry relative="1" as="geometry"/>
                </mxCell>
                <mxCell id="6" value="&lt;p style=&quot;line-height: 1&quot;&gt;6&lt;/p&gt;" style="ellipse;whiteSpace=wrap;html=1;aspect=fixed;" parent="1" vertex="1">
                    <mxGeometry x="40" y="640" width="80" height="80" as="geometry"/>
                </mxCell>
                <mxCell id="12" value="" style="edgeStyle=none;html=1;" parent="1" source="9" target="11" edge="1">
                    <mxGeometry relative="1" as="geometry"/>
                </mxCell>
                <mxCell id="14" value="" style="edgeStyle=none;html=1;" parent="1" source="9" target="13" edge="1">
                    <mxGeometry relative="1" as="geometry"/>
                </mxCell>
                <mxCell id="9" value="&lt;p style=&quot;line-height: 1&quot;&gt;7&lt;/p&gt;" style="ellipse;whiteSpace=wrap;html=1;aspect=fixed;fillColor=#60a917;fontColor=#ffffff;strokeColor=#2D7600;" parent="1" vertex="1">
                    <mxGeometry x="40" y="760" width="80" height="80" as="geometry"/>
                </mxCell>
                <mxCell id="11" value="&lt;p style=&quot;line-height: 1&quot;&gt;12&lt;/p&gt;" style="ellipse;whiteSpace=wrap;html=1;aspect=fixed;fillColor=#d80073;fontColor=#ffffff;strokeColor=#A50040;" parent="1" vertex="1">
                    <mxGeometry x="40" y="880" width="80" height="80" as="geometry"/>
                </mxCell>
                <mxCell id="17" value="" style="edgeStyle=none;html=1;" parent="1" source="13" target="16" edge="1">
                    <mxGeometry relative="1" as="geometry"/>
                </mxCell>
                <mxCell id="13" value="&lt;p style=&quot;line-height: 1&quot;&gt;8&lt;/p&gt;" style="ellipse;whiteSpace=wrap;html=1;aspect=fixed;fillColor=#60a917;fontColor=#ffffff;strokeColor=#2D7600;" parent="1" vertex="1">
                    <mxGeometry x="160" y="760" width="80" height="80" as="geometry"/>
                </mxCell>
                <mxCell id="15" value="" style="edgeStyle=none;html=1;" parent="1" source="13" target="11" edge="1">
                    <mxGeometry relative="1" as="geometry">
                        <mxPoint x="90" y="850" as="sourcePoint"/>
                        <mxPoint x="90" y="890" as="targetPoint"/>
                    </mxGeometry>
                </mxCell>
                <mxCell id="19" value="" style="edgeStyle=none;html=1;" parent="1" source="16" target="18" edge="1">
                    <mxGeometry relative="1" as="geometry"/>
                </mxCell>
                <mxCell id="16" value="&lt;p style=&quot;line-height: 1&quot;&gt;9&lt;/p&gt;" style="ellipse;whiteSpace=wrap;html=1;aspect=fixed;fillColor=#6a00ff;fontColor=#ffffff;strokeColor=#3700CC;" parent="1" vertex="1">
                    <mxGeometry x="280" y="760" width="80" height="80" as="geometry"/>
                </mxCell>
                <mxCell id="18" value="&lt;p style=&quot;line-height: 1&quot;&gt;11&lt;/p&gt;" style="ellipse;whiteSpace=wrap;html=1;aspect=fixed;" parent="1" vertex="1">
                    <mxGeometry x="280" y="640" width="80" height="80" as="geometry"/>
                </mxCell>
                <mxCell id="20" value="" style="edgeStyle=none;html=1;exitX=0;exitY=0.5;exitDx=0;exitDy=0;entryX=1;entryY=0;entryDx=0;entryDy=0;" parent="1" source="18" target="9" edge="1">
                    <mxGeometry relative="1" as="geometry">
                        <mxPoint x="250" y="810" as="sourcePoint"/>
                        <mxPoint x="290" y="810" as="targetPoint"/>
                        <Array as="points">
                            <mxPoint x="200" y="680"/>
                        </Array>
                    </mxGeometry>
                </mxCell>
                <mxCell id="21" value="&lt;p style=&quot;line-height: 1&quot;&gt;10&lt;/p&gt;" style="ellipse;whiteSpace=wrap;html=1;aspect=fixed;" parent="1" vertex="1">
                    <mxGeometry x="400" y="640" width="80" height="80" as="geometry"/>
                </mxCell>
                <mxCell id="22" value="" style="edgeStyle=none;html=1;entryX=0;entryY=1;entryDx=0;entryDy=0;exitX=1;exitY=0;exitDx=0;exitDy=0;" parent="1" source="16" target="21" edge="1">
                    <mxGeometry relative="1" as="geometry">
                        <mxPoint x="330" y="770" as="sourcePoint"/>
                        <mxPoint x="330" y="730" as="targetPoint"/>
                    </mxGeometry>
                </mxCell>
                <mxCell id="23" value="" style="edgeStyle=none;html=1;entryX=1;entryY=0;entryDx=0;entryDy=0;exitX=0.5;exitY=0;exitDx=0;exitDy=0;" parent="1" source="21" target="9" edge="1">
                    <mxGeometry relative="1" as="geometry">
                        <mxPoint x="358.2842712474619" y="781.7157287525381" as="sourcePoint"/>
                        <mxPoint x="421.7157287525381" y="718.2842712474619" as="targetPoint"/>
                        <Array as="points">
                            <mxPoint x="440" y="600"/>
                            <mxPoint x="240" y="600"/>
                            <mxPoint x="160" y="600"/>
                            <mxPoint x="160" y="680"/>
                        </Array>
                    </mxGeometry>
                </mxCell>
                <mxCell id="28" value="" style="edgeStyle=none;html=1;" parent="1" source="24" target="5" edge="1">
                    <mxGeometry relative="1" as="geometry"/>
                </mxCell>
                <mxCell id="24" value="&lt;p style=&quot;line-height: 1&quot;&gt;4&lt;/p&gt;" style="ellipse;whiteSpace=wrap;html=1;aspect=fixed;" parent="1" vertex="1">
                    <mxGeometry x="40" y="400" width="80" height="80" as="geometry"/>
                </mxCell>
                <mxCell id="27" value="" style="edgeStyle=none;html=1;" parent="1" source="25" target="24" edge="1">
                    <mxGeometry relative="1" as="geometry"/>
                </mxCell>
                <mxCell id="25" value="&lt;p style=&quot;line-height: 1&quot;&gt;3&lt;/p&gt;" style="ellipse;whiteSpace=wrap;html=1;aspect=fixed;" parent="1" vertex="1">
                    <mxGeometry x="40" y="280" width="80" height="80" as="geometry"/>
                </mxCell>
                <mxCell id="29" value="Regiones = 4" style="text;html=1;align=center;verticalAlign=middle;resizable=0;points=[];autosize=1;strokeColor=none;fillColor=none;" vertex="1" parent="1">
                    <mxGeometry x="360" y="470" width="90" height="20" as="geometry"/>
                </mxCell>
                <mxCell id="30" value="Aristas 14 - Nodos 12 + 2 =&amp;nbsp; 4&amp;nbsp;" style="text;html=1;align=center;verticalAlign=middle;resizable=0;points=[];autosize=1;strokeColor=none;fillColor=none;" vertex="1" parent="1">
                    <mxGeometry x="360" y="505" width="180" height="20" as="geometry"/>
                </mxCell>
                <mxCell id="31" value="NodosPredicado 3 + 1 = 4" style="text;html=1;align=center;verticalAlign=middle;resizable=0;points=[];autosize=1;strokeColor=none;fillColor=none;" vertex="1" parent="1">
                    <mxGeometry x="360" y="540" width="160" height="20" as="geometry"/>
                </mxCell>
                <mxCell id="32" value="1:&amp;nbsp;&lt;span&gt;unaLista1 = list(cadena1)&lt;/span&gt;&lt;br&gt;2:&amp;nbsp;&lt;span&gt;unaLista2 = list(cadena2)&lt;/span&gt;&lt;br&gt;3:&amp;nbsp;&lt;span&gt;unaLista1.sort()&lt;/span&gt;&lt;br&gt;4:&amp;nbsp;&lt;span&gt;unaLista2.sort()&lt;/span&gt;&lt;br&gt;5:&amp;nbsp;&lt;span&gt;pos = 0&lt;/span&gt;&lt;br&gt;6:&amp;nbsp;&lt;span&gt;coincide = True&lt;/span&gt;&lt;br&gt;7:&amp;nbsp;&lt;span style=&quot;color: rgb(255 , 255 , 255)&quot;&gt;pos &amp;lt; len(cadena1)&lt;/span&gt;&lt;br&gt;8:&amp;nbsp;&lt;span style=&quot;color: rgb(255 , 255 , 255)&quot;&gt;coincide == True&lt;/span&gt;&lt;br&gt;9:&amp;nbsp;&lt;span style=&quot;color: rgb(255 , 255 , 255)&quot;&gt;unaLista1[pos == unaLista2[pos]&lt;/span&gt;&lt;br&gt;10:&amp;nbsp;&lt;span&gt;concide = False&lt;/span&gt;&lt;br&gt;11:&amp;nbsp;&lt;span&gt;pos = pos + 1&lt;/span&gt;&lt;br&gt;12:&amp;nbsp;&lt;span style=&quot;color: rgb(255 , 255 , 255)&quot;&gt;return coincide&lt;/span&gt;" style="text;html=1;align=center;verticalAlign=middle;resizable=0;points=[];autosize=1;strokeColor=none;fillColor=none;" vertex="1" parent="1">
                    <mxGeometry x="290" y="85" width="200" height="170" as="geometry"/>
                </mxCell>
            </root>
        </mxGraphModel>
    </diagram>
</mxfile>